<svg width="258" height="247" viewBox="0 0 258 247" fill="none" xmlns="http://www.w3.org/2000/svg">
<path fill-rule="evenodd" clip-rule="evenodd" d="M132.187 4.71314C155.82 8.00094 178.021 15.1969 197.845 28.4513C218.37 42.1743 237.187 58.7743 246.932 81.4308C257.31 105.561 262.184 133.185 253.563 157.995C245.019 182.58 222.21 198.021 201.104 213.3C180.014 228.568 158.15 248.041 132.187 245.863C106.671 243.723 91.1115 218.473 71.201 202.406C52.6082 187.402 31.2488 176.011 19.7197 155.106C6.37586 130.91 -4.21618 103.302 1.66132 76.314C7.80862 48.0872 26.3643 22.0387 51.7296 8.12423C75.8433 -5.10356 104.934 0.921795 132.187 4.71314Z" fill="white"/>
<g clip-path="url(#clip0)">
<path d="M208.794 173.815L93.6014 175.546L47.8762 167.468H119.259L208.794 173.815Z" fill="#E6E6E6"/>
<path d="M180.526 72.6443C190.703 72.6443 198.953 64.4204 198.953 54.2757C198.953 44.1311 190.703 35.9072 180.526 35.9072C170.349 35.9072 162.099 44.1311 162.099 54.2757C162.099 64.4204 170.349 72.6443 180.526 72.6443Z" fill="#FF6584"/>
<path d="M80.4739 168.428C80.4739 168.428 80.7434 162.798 86.269 163.453L80.4739 168.428Z" fill="#00013D"/>
<path d="M78.9127 163.071C80.4401 163.071 81.6782 161.836 81.6782 160.314C81.6782 158.791 80.4401 157.557 78.9127 157.557C77.3854 157.557 76.1472 158.791 76.1472 160.314C76.1472 161.836 77.3854 163.071 78.9127 163.071Z" fill="#6C63FF"/>
<path d="M79.2435 164.956H78.4629V170.403H79.2435V164.956Z" fill="#00013D"/>
<path d="M171.547 169.39C171.547 169.39 171.817 163.76 177.342 164.414L171.547 169.39Z" fill="#00013D"/>
<path d="M169.986 164.032C171.514 164.032 172.752 162.798 172.752 161.276C172.752 159.753 171.514 158.519 169.986 158.519C168.459 158.519 167.221 159.753 167.221 161.276C167.221 162.798 168.459 164.032 169.986 164.032Z" fill="#6C63FF"/>
<path d="M170.317 165.918H169.536V171.365H170.317V165.918Z" fill="#00013D"/>
<path d="M184.861 170.352C184.861 170.352 185.131 164.722 190.656 165.376L184.861 170.352Z" fill="#00013D"/>
<path d="M183.3 164.994C184.827 164.994 186.065 163.76 186.065 162.237C186.065 160.715 184.827 159.481 183.3 159.481C181.773 159.481 180.534 160.715 180.534 162.237C180.534 163.76 181.773 164.994 183.3 164.994Z" fill="#6C63FF"/>
<path d="M183.631 166.879H182.85V172.327H183.631V166.879Z" fill="#00013D"/>
<path d="M102.278 165.735C102.278 165.735 102.547 160.105 108.073 160.76L102.278 165.735Z" fill="#00013D"/>
<path d="M100.716 160.378C102.244 160.378 103.482 159.144 103.482 157.621C103.482 156.099 102.244 154.864 100.716 154.864C99.1891 154.864 97.9509 156.099 97.9509 157.621C97.9509 159.144 99.1891 160.378 100.716 160.378Z" fill="#6C63FF"/>
<path d="M101.047 162.263H100.267V167.71H101.047V162.263Z" fill="#00013D"/>
<path d="M61.179 166.697C61.179 166.697 61.4485 161.067 66.974 161.722L61.179 166.697Z" fill="#00013D"/>
<path d="M59.6176 161.34C61.1449 161.34 62.3831 160.105 62.3831 158.583C62.3831 157.06 61.1449 155.826 59.6176 155.826C58.0902 155.826 56.8521 157.06 56.8521 158.583C56.8521 160.105 58.0902 161.34 59.6176 161.34Z" fill="#6C63FF"/>
<path d="M59.9484 163.225H59.1677V168.672H59.9484V163.225Z" fill="#00013D"/>
<path d="M128.043 156.914C144.684 156.914 158.174 143.467 158.174 126.879C158.174 110.291 144.684 96.844 128.043 96.844C111.403 96.844 97.9128 110.291 97.9128 126.879C97.9128 143.467 111.403 156.914 128.043 156.914Z" fill="#00013D"/>
<path d="M109.074 129.29C109.823 128.397 110.758 127.679 111.816 127.186C112.873 126.693 114.026 126.437 115.193 126.437C116.361 126.437 117.514 126.693 118.571 127.186C119.628 127.679 120.564 128.397 121.313 129.29C122.593 128.072 123.478 126.499 123.854 124.774C124.229 123.05 124.078 121.253 123.42 119.615C122.761 117.977 121.626 116.573 120.16 115.584C118.693 114.595 116.964 114.067 115.193 114.067C113.423 114.067 111.694 114.595 110.227 115.584C108.761 116.573 107.626 117.977 106.967 119.615C106.309 121.253 106.158 123.05 106.533 124.774C106.909 126.499 107.794 128.072 109.074 129.29Z" fill="white"/>
<path d="M133.001 129.29C133.75 128.397 134.686 127.679 135.743 127.186C136.8 126.693 137.953 126.437 139.121 126.437C140.288 126.437 141.441 126.693 142.498 127.186C143.556 127.679 144.492 128.397 145.24 129.29C146.52 128.072 147.405 126.499 147.781 124.774C148.156 123.05 148.005 121.253 147.347 119.615C146.688 117.977 145.553 116.573 144.087 115.584C142.621 114.595 140.891 114.067 139.121 114.067C137.35 114.067 135.621 114.595 134.155 115.584C132.688 116.573 131.553 117.977 130.895 119.615C130.236 121.253 130.085 123.05 130.46 124.774C130.836 126.499 131.721 128.072 133.001 129.29Z" fill="white"/>
<path d="M112.17 122.931C113.854 122.931 115.219 121.571 115.219 119.892C115.219 118.214 113.854 116.854 112.17 116.854C110.487 116.854 109.122 118.214 109.122 119.892C109.122 121.571 110.487 122.931 112.17 122.931Z" fill="#00013D"/>
<path d="M136.097 122.931C137.78 122.931 139.145 121.571 139.145 119.892C139.145 118.214 137.78 116.854 136.097 116.854C134.413 116.854 133.048 118.214 133.048 119.892C133.048 121.571 134.413 122.931 136.097 122.931Z" fill="#00013D"/>
<path d="M106.332 137.921C108.289 137.921 109.876 136.339 109.876 134.388C109.876 132.436 108.289 130.854 106.332 130.854C104.374 130.854 102.787 132.436 102.787 134.388C102.787 136.339 104.374 137.921 106.332 137.921Z" fill="#FF6584"/>
<path d="M147.097 137.921C149.054 137.921 150.641 136.339 150.641 134.388C150.641 132.436 149.054 130.854 147.097 130.854C145.139 130.854 143.552 132.436 143.552 134.388C143.552 136.339 145.139 137.921 147.097 137.921Z" fill="#FF6584"/>
<path d="M126.714 127.321L124.055 138.805L128.486 134.388L126.714 127.321Z" fill="#FF6584"/>
<path d="M140.374 171.49L137.356 168.965L137.426 171.49H136.489L136.414 168.82L132.339 171.49H130.633L136.384 167.722L136.161 159.81L135.994 153.834L136.93 153.809L137.098 159.81L137.321 167.715L141.832 171.49H140.374Z" fill="#00013D"/>
<path d="M126.194 171.49L123.176 168.965L123.246 171.49H122.311L122.236 168.82L118.161 171.49H116.455L122.203 167.722L121.981 159.81L121.814 153.834L122.752 153.809L122.92 159.81L123.141 167.715L127.652 171.49H126.194Z" fill="#00013D"/>
<path d="M128.486 94.6356C127.66 94.6356 126.93 95.2757 126.443 96.259C126.013 94.7805 125.11 93.7522 124.055 93.7522C123.984 93.7593 123.913 93.7712 123.843 93.7878C123.437 92.2092 122.495 91.1021 121.397 91.1021C119.929 91.1021 118.738 93.0796 118.738 95.519C118.738 97.9584 119.929 99.9359 121.397 99.9359C121.469 99.9288 121.54 99.9169 121.61 99.9002C122.015 101.479 122.957 102.586 124.055 102.586C124.882 102.586 125.612 101.946 126.099 100.963C126.529 102.441 127.432 103.469 128.486 103.469C129.955 103.469 131.145 101.492 131.145 99.0525C131.145 96.6131 129.955 94.6356 128.486 94.6356Z" fill="#00013D"/>
<path d="M99.762 138.261C98.5982 138.261 97.4458 138.032 96.3707 137.589C95.2955 137.145 94.3186 136.494 93.4956 135.674C92.6727 134.853 92.02 133.879 91.5746 132.808C91.1293 131.736 90.9001 130.587 90.9001 129.427V125.01C90.9001 122.667 91.8337 120.42 93.4956 118.764C95.1576 117.107 97.4116 116.176 99.762 116.176V138.261Z" fill="#6C63FF"/>
<path d="M156.324 116.176C157.488 116.176 158.641 116.405 159.716 116.849C160.791 117.293 161.768 117.943 162.591 118.764C163.414 119.584 164.066 120.558 164.512 121.63C164.957 122.701 165.186 123.85 165.186 125.01V129.427C165.186 130.587 164.957 131.736 164.512 132.808C164.066 133.879 163.414 134.853 162.591 135.674C161.768 136.494 160.791 137.145 159.716 137.589C158.641 138.032 157.488 138.261 156.324 138.261V116.176H156.324Z" fill="#6C63FF"/>
<path d="M160.968 125.704H159.562C159.562 107.929 145.055 93.4676 127.223 93.4676C109.391 93.4676 94.8838 107.929 94.8838 125.704H93.4778C93.4778 107.156 108.616 92.066 127.223 92.066C145.83 92.066 160.968 107.156 160.968 125.704Z" fill="#6C63FF"/>
<path d="M78.9707 98.6906L78.9709 98.6901L78.3103 98.4159L75.5232 97.2413L74.5242 96.8204L74.4475 97.0133L73.1055 100.391L76.8823 101.985L76.9022 102.002L76.6476 102.601C76.6128 102.655 76.5831 102.713 76.5588 102.773C76.3806 103.222 76.7173 103.668 77.0356 103.794C77.3539 103.92 77.7565 103.658 77.9348 103.209C78.1107 102.767 77.9388 102.204 77.6286 102.068L77.6289 102.068L76.9683 101.794L74.7086 100.918L75.9998 97.6682L75.8084 97.5927L74.5168 100.844L74.2373 100.735L75.534 97.4717L75.5682 97.4862L78.2244 98.6068L78.2442 98.6247L77.9897 99.2229C77.9548 99.2777 77.9251 99.3354 77.9009 99.3956C77.7226 99.8443 78.0593 100.291 78.3776 100.416C78.696 100.542 79.0986 100.28 79.2769 99.8314C79.4527 99.3888 79.2809 98.8265 78.9707 98.6906Z" fill="#00013D"/>
<path d="M92.0432 106.983C90.6722 106.202 90.9465 104.487 90.9465 104.487C90.912 103.373 89.9887 103.53 89.9887 103.53L89.6527 103.607C89.4966 103.535 89.3247 103.503 89.153 103.515L88.6419 103.601C89.8058 103.873 89.7102 104.844 89.7102 104.844L89.8733 105.979L86.8234 104.752L87.1736 103.929C87.222 103.853 87.2633 103.773 87.2969 103.689C87.5445 103.066 87.0769 102.446 86.6347 102.272C86.1926 102.097 85.6335 102.461 85.3858 103.084C85.1416 103.699 85.3803 104.48 85.8111 104.669L85.8108 104.669L86.7282 105.05L86.7351 105.029L92.0432 106.983ZM90.4945 104.989L90.5923 106.075C90.2469 105.592 90.0847 105.003 90.1344 104.412C90.1263 104.201 90.0552 103.998 89.9302 103.829C90.1224 103.952 90.2768 104.125 90.3763 104.33C90.4759 104.534 90.5168 104.762 90.4945 104.989V104.989Z" fill="#00013D"/>
<path d="M68.7788 90.918L68.7792 90.9172L67.8617 90.5364L64.0272 89.0505L64.995 88.1922C65.1844 87.9406 65.4639 87.7717 65.7753 87.7209C66.0867 87.67 66.4057 87.7412 66.6657 87.9194L66.3653 87.4745C66.3653 87.4745 65.8008 86.7294 65.0104 87.5177C65.0104 87.5177 64.0326 88.9547 62.4966 88.5884L67.7423 90.8016L67.7698 90.8265L67.4163 91.6573C67.3679 91.7333 67.3267 91.8136 67.293 91.8971C67.0454 92.5204 67.5131 93.1403 67.9552 93.3149C68.3973 93.4894 68.9565 93.1257 69.2041 92.5024C69.4483 91.8877 69.2096 91.1067 68.7788 90.918Z" fill="#00013D"/>
<path d="M82.817 86.0549L82.4634 86.8857C82.4151 86.9617 82.3738 87.042 82.3401 87.1255C82.0925 87.7488 82.5602 88.3687 83.0023 88.5433C83.4444 88.7178 84.0036 88.3541 84.2512 87.7308C84.4955 87.1161 84.2568 86.3351 83.8259 86.1464L83.8263 86.1457L82.9088 85.7648L79.7703 84.5486L81.5636 80.0351L81.2978 79.9302L79.5038 84.4454L79.1158 84.295L80.9167 79.7622L80.9641 79.7822L84.6533 81.3387L84.6809 81.3636L84.3274 82.1944C84.279 82.2704 84.2377 82.3507 84.2041 82.4342C83.9564 83.0574 84.4241 83.6774 84.8662 83.8519C85.3083 84.0265 85.8675 83.6627 86.1151 83.0395C86.3594 82.4247 86.1207 81.6437 85.6899 81.455L85.6902 81.4543L84.7728 81.0734L81.0234 79.4935L81.0233 79.4934L80.9017 79.4422L79.5141 78.8575L77.5437 83.8168L82.7894 86.03L82.817 86.0549Z" fill="#00013D"/>
<path d="M66.1931 60.656L66.1938 60.6547L64.6144 59.9991L58.0136 57.4413L59.6796 55.9638C59.6796 55.9638 60.7878 54.4311 62.5555 55.4942L62.0385 54.7282C62.0385 54.7282 61.0666 53.4455 59.7061 54.8026C59.7061 54.8026 58.0228 57.2764 55.3787 56.6458L64.4088 60.4557L64.4562 60.4985L63.8477 61.9288C63.7644 62.0596 63.6934 62.1978 63.6354 62.3416C63.2091 63.4145 64.0142 64.4817 64.7753 64.7822C65.5364 65.0826 66.499 64.4565 66.9253 63.3836C67.3457 62.3253 66.9348 60.9809 66.1931 60.656Z" fill="#00013D"/>
<path d="M71.0399 82.142C67.7619 80.2737 68.4179 76.1739 68.4179 76.1739C68.3354 73.5104 66.1279 73.8875 66.1279 73.8875L65.3244 74.0702C64.9512 73.8975 64.5403 73.8218 64.1298 73.85L62.9076 74.055C65.6905 74.7068 65.4619 77.0274 65.4619 77.0274L65.8518 79.7408L58.5598 76.8085L59.3971 74.8406C59.5128 74.6589 59.6115 74.467 59.692 74.2673C60.284 72.7772 59.1658 71.2949 58.1088 70.8776C57.0517 70.4603 55.7148 71.33 55.1227 72.8201C54.5387 74.2899 55.1094 76.1572 56.1395 76.6084L56.1387 76.6101L58.3322 77.5207L58.3486 77.4692L71.0399 82.142ZM67.337 77.3744L67.5716 79.9806C66.1948 78.1587 66.4763 75.9942 66.4763 75.9942C66.4568 75.4916 66.2867 75.0062 65.9879 74.6009C67.5694 75.5443 67.337 77.3744 67.337 77.3744H67.337Z" fill="#00013D"/>
</g>
<defs>
<clipPath id="clip0">
<rect width="160.918" height="139.639" fill="white" transform="translate(47.8762 35.9072)"/>
</clipPath>
</defs>
</svg>
